# Rhino

mtllib leg1.mtl
usemtl diffuse_0
v 0 0 0.5
v 0 0.029999999329447746 0.5
v 0.03799104318022728 0 0.49250233173370361
v 0.03799104318022728 0.029999999329447746 0.49250233173370361
v 0.071443326771259308 0 0.46997034549713135
v 0.071443326771259308 0.029999999329447746 0.46997034549713135
v 0.093161389231681824 0 0.43634495139122009
v 0.093161389231681824 0.029999999329447746 0.43634495139122009
v 0.10000000149011612 0 0.40000000596046448
v 0.10000000149011612 0.029999999329447746 0.40000000596046448
v 0 0.014999999664723873 0.5
v 0.10000000149011612 0 0
v 0.10000000149011612 0.029999999329447746 0
v 0.10000000149011612 0 0.30000001192092896
v 0.10000000149011612 0 0.20000000298023224
v 0.10000000149011612 0 0.10000000149011612
v 0.10000000149011612 0.029999999329447746 0.10000000149011612
v 0.10000000149011612 0.029999999329447746 0.20000000298023224
v 0.10000000149011612 0.029999999329447746 0.30000001192092896
v 0.092502325773239136 0 -0.03799104318022728
v 0.092502325773239136 0.029999999329447746 -0.03799104318022728
v 0.069970361888408661 0 -0.071443326771259308
v 0.069970361888408661 0.029999999329447746 -0.071443326771259308
v 0.036344949156045914 0 -0.093161389231681824
v 0.036344949156045914 0.029999999329447746 -0.093161389231681824
v 0 0 -0.10000000149011612
v 0 0.029999999329447746 -0.10000000149011612
v -0.03799104318022728 0 -0.092502325773239136
v -0.03799104318022728 0.029999999329447746 -0.092502325773239136
v -0.071443326771259308 0 -0.069970361888408661
v -0.071443326771259308 0.029999999329447746 -0.069970361888408661
v -0.093161389231681824 0 -0.036344949156045914
v -0.093161389231681824 0.029999999329447746 -0.036344949156045914
v -0.10000000149011612 0 0
v -0.10000000149011612 0.029999999329447746 0
v -0.10000000149011612 0 0.40000000596046448
v -0.10000000149011612 0.029999999329447746 0.40000000596046448
v -0.10000000149011612 0 0.10000000149011612
v -0.10000000149011612 0 0.20000000298023224
v -0.10000000149011612 0 0.30000001192092896
v -0.10000000149011612 0.029999999329447746 0.30000001192092896
v -0.10000000149011612 0.029999999329447746 0.20000000298023224
v -0.10000000149011612 0.029999999329447746 0.10000000149011612
v -0.092502325773239136 0 0.43799105286598206
v -0.092502325773239136 0.029999999329447746 0.43799105286598206
v -0.069970361888408661 0 0.47144332528114319
v -0.069970361888408661 0.029999999329447746 0.47144332528114319
v -0.036344949156045914 0 0.49316138029098511
v -0.036344949156045914 0.029999999329447746 0.49316138029098511
v 0 0.029999999329447746 0.20000000298023224
v 0.050999999046325684 0.029999999329447746 0.20000000298023224
v 0 0.029999999329447746 0.3529999852180481
v 0.050999999046325684 0.029999999329447746 0.3529999852180481
v -0.050999999046325684 0.029999999329447746 0.20000000298023224
v -0.050999999046325684 0.029999999329447746 0.3529999852180481
v 0.076499998569488525 0.029999999329447746 0.3529999852180481
v 0.050999999046325684 0.029999999329447746 0.42950001358985901
v 0.076499998569488525 0.029999999329447746 0.42950001358985901
v 0 0.029999999329447746 0.046999998390674591
v 0.050999999046325684 0.029999999329447746 0.046999998390674591
v 0.050999999046325684 0.029999999329447746 -0.029500000178813934
v 0 0.029999999329447746 -0.029500000178813934
v 0.025499999523162842 0.029999999329447746 0.046999998390674591
v 0.025499999523162842 0.029999999329447746 -0.029500000178813934
v -0.050999999046325684 0.029999999329447746 0.046999998390674591
v -0.050999999046325684 0.029999999329447746 -0.029500000178813934
v -0.025499999523162842 0.029999999329447746 0.046999998390674591
v -0.025499999523162842 0.029999999329447746 -0.029500000178813934
v -0.076499998569488525 0.029999999329447746 0.046999998390674591
v -0.076499998569488525 0.029999999329447746 -0.029500000178813934
v 0 0.029999999329447746 0.42950001358985901
v -0.025499999523162842 0.029999999329447746 0.3529999852180481
v -0.050999999046325684 0.029999999329447746 0.42950001358985901
v -0.025499999523162842 0.029999999329447746 0.42950001358985901
v 0 0 0.20000000298023224
v 0.050999999046325684 0 0.20000000298023224
v 0 0 0.3529999852180481
v 0.050999999046325684 0 0.3529999852180481
v -0.050999999046325684 0 0.20000000298023224
v -0.050999999046325684 0 0.3529999852180481
v 0.076499998569488525 0 0.3529999852180481
v 0.050999999046325684 0 0.42950001358985901
v 0.076499998569488525 0 0.42950001358985901
v 0 0 0.046999998390674591
v 0.050999999046325684 0 0.046999998390674591
v 0.050999999046325684 0 -0.029500000178813934
v 0 0 -0.029500000178813934
v 0.025499999523162842 0 0.046999998390674591
v 0.025499999523162842 0 -0.029500000178813934
v -0.050999999046325684 0 0.046999998390674591
v -0.050999999046325684 0 -0.029500000178813934
v -0.025499999523162842 0 0.046999998390674591
v -0.025499999523162842 0 -0.029500000178813934
v -0.076499998569488525 0 0.046999998390674591
v -0.076499998569488525 0 -0.029500000178813934
v 0 0 0.42950001358985901
v -0.025499999523162842 0 0.3529999852180481
v -0.050999999046325684 0 0.42950001358985901
v -0.025499999523162842 0 0.42950001358985901
vt 0.52794694900512695 0
vt 0.48039215803146362 0
vt 0.52794694900512695 0.066223710775375366
vt 0.48039215803146362 0.066223710775375366
vt 0.52794694900512695 0.1299496591091156
vt 0.48039215803146362 0.1299496591091156
vt 0.52794694900512695 0.1933109313249588
vt 0.48039215803146362 0.1933109313249588
vt 0.52794694900512695 0.256672203540802
vt 0.48039215803146362 0.256672203540802
vt 0.5041695237159729 0
vt 0.096574373543262482 0
vt 0.049019608646631241 0
vt 0.096574373543262482 0.65359479188919067
vt 0.049019608646631241 0.65359479188919067
vt 0.096574373543262482 0.16339869797229767
vt 0.096574373543262482 0.32679739594459534
vt 0.096574373543262482 0.49019607901573181
vt 0.049019608646631241 0.49019607901573181
vt 0.049019608646631241 0.32679739594459534
vt 0.049019608646631241 0.16339869797229767
vt 0.047554764896631241 0
vt 0 0
vt 0.047554764896631241 0.066223710775375366
vt 0 0.066223710775375366
vt 0.047554764896631241 0.1299496591091156
vt 0 0.1299496591091156
vt 0.047554764896631241 0.1933109313249588
vt 0 0.1933109313249588
vt 0.047554764896631241 0.256672203540802
vt 0 0.256672203540802
vt 0.047554764896631241 0.32289591431617737
vt 0 0.32289591431617737
vt 0.047554764896631241 0.3866218626499176
vt 0 0.3866218626499176
vt 0.047554764896631241 0.44998311996459961
vt 0 0.44998311996459961
vt 0.047554764896631241 0.513344407081604
vt 0 0.513344407081604
vt 0.57696652412414551 0
vt 0.52941179275512695 0
vt 0.57696652412414551 0.65359479188919067
vt 0.52941179275512695 0.65359479188919067
vt 0.57696652412414551 0.16339869797229767
vt 0.57696652412414551 0.32679739594459534
vt 0.57696652412414551 0.49019607901573181
vt 0.52941179275512695 0.49019607901573181
vt 0.52941179275512695 0.32679739594459534
vt 0.52941179275512695 0.16339869797229767
vt 0.47892731428146362 0
vt 0.43137255311012268 0
vt 0.47892731428146362 0.066223710775375366
vt 0.43137255311012268 0.066223710775375366
vt 0.47892731428146362 0.1299496591091156
vt 0.43137255311012268 0.1299496591091156
vt 0.47892731428146362 0.1933109313249588
vt 0.43137255311012268 0.1933109313249588
vt 0.47892731428146362 0.256672203540802
vt 0.43137255311012268 0.256672203540802
vt 0.45514991879463196 0.256672203540802
vt 0.7443656325340271 0.0097895609214901924
vt 0.80616968870162964 0.022022711113095284
vt 0.86059010028839111 0.058785725384950638
vt 0.89592117071151733 0.11364872008562088
vt 0.90704625844955444 0.17294889688491821
vt 0.7443656325340271 0.499267578125
vt 0.82733273506164551 0.499267578125
vt 0.7443656325340271 0.2496337890625
vt 0.82733273506164551 0.2496337890625
vt 0.66139847040176392 0.499267578125
vt 0.66139847040176392 0.2496337890625
vt 0.8688163161277771 0.2496337890625
vt 0.82733273506164551 0.12481689453125
vt 0.8688163161277771 0.12481689453125
vt 0.90704625844955444 0.33610823750495911
vt 0.90704625844955444 0.499267578125
vt 0.90704625844955444 0.66242688894271851
vt 0.90704625844955444 0.82558625936508179
vt 0.89484900236129761 0.88757216930389404
vt 0.85819381475448608 0.94215273857116699
vt 0.80349183082580566 0.97758781909942627
vt 0.7443656325340271 0.98874557018280029
vt 0.68256157636642456 0.97651243209838867
vt 0.62814116477966309 0.93974941968917847
vt 0.59281009435653687 0.88488644361495972
vt 0.58168500661849976 0.82558625936508179
vt 0.7443656325340271 0.7489013671875
vt 0.82733273506164551 0.7489013671875
vt 0.82733273506164551 0.87371826171875
vt 0.7443656325340271 0.87371826171875
vt 0.78584915399551392 0.7489013671875
vt 0.78584915399551392 0.87371826171875
vt 0.66139847040176392 0.7489013671875
vt 0.66139847040176392 0.87371826171875
vt 0.70288205146789551 0.7489013671875
vt 0.70288205146789551 0.87371826171875
vt 0.6199149489402771 0.7489013671875
vt 0.6199149489402771 0.87371826171875
vt 0.58168500661849976 0.66242688894271851
vt 0.58168500661849976 0.499267578125
vt 0.58168500661849976 0.33610823750495911
vt 0.58168500661849976 0.17294889688491821
vt 0.59388226270675659 0.11096296459436417
vt 0.63053739070892334 0.056382440030574799
vt 0.68523943424224854 0.020947391167283058
vt 0.7443656325340271 0.12481689453125
vt 0.70288205146789551 0.2496337890625
vt 0.66139847040176392 0.12481689453125
vt 0.70288205146789551 0.12481689453125
vt 0.26397347450256348 0.0097895609214901924
vt 0.32577753067016602 0.022022711113095284
vt 0.3801979124546051 0.058785725384950638
vt 0.41552901268005371 0.11364872008562088
vt 0.42665407061576843 0.17294889688491821
vt 0.26397347450256348 0.499267578125
vt 0.34694057703018188 0.499267578125
vt 0.26397347450256348 0.2496337890625
vt 0.34694057703018188 0.2496337890625
vt 0.18100634217262268 0.499267578125
vt 0.18100634217262268 0.2496337890625
vt 0.38842415809631348 0.2496337890625
vt 0.34694057703018188 0.12481689453125
vt 0.38842415809631348 0.12481689453125
vt 0.42665407061576843 0.33610823750495911
vt 0.42665407061576843 0.499267578125
vt 0.42665407061576843 0.66242688894271851
vt 0.42665407061576843 0.82558625936508179
vt 0.41445684432983398 0.88757216930389404
vt 0.37780168652534485 0.94215273857116699
vt 0.32309964299201965 0.97758781909942627
vt 0.26397347450256348 0.98874557018280029
vt 0.20216938853263855 0.97651243209838867
vt 0.14774900674819946 0.93974941968917847
vt 0.11241792142391205 0.88488644361495972
vt 0.10129282623529434 0.82558625936508179
vt 0.26397347450256348 0.7489013671875
vt 0.34694057703018188 0.7489013671875
vt 0.34694057703018188 0.87371826171875
vt 0.26397347450256348 0.87371826171875
vt 0.30545702576637268 0.7489013671875
vt 0.30545702576637268 0.87371826171875
vt 0.18100634217262268 0.7489013671875
vt 0.18100634217262268 0.87371826171875
vt 0.22248989343643188 0.7489013671875
vt 0.22248989343643188 0.87371826171875
vt 0.13952277600765228 0.7489013671875
vt 0.13952277600765228 0.87371826171875
vt 0.10129282623529434 0.66242688894271851
vt 0.10129282623529434 0.499267578125
vt 0.10129282623529434 0.33610823750495911
vt 0.10129282623529434 0.17294889688491821
vt 0.11349008977413177 0.11096296459436417
vt 0.15014524757862091 0.056382440030574799
vt 0.20484727621078491 0.020947391167283058
vt 0.26397347450256348 0.12481689453125
vt 0.22248989343643188 0.2496337890625
vt 0.18100634217262268 0.12481689453125
vt 0.22248989343643188 0.12481689453125
vn 0 0 1
vn 0 0 1
vn 0.37991040945053101 0 0.92502325773239136
vn 0.37991040945053101 0 0.92502325773239136
vn 0.71443325281143188 0 0.69970357418060303
vn 0.71443325281143188 0 0.69970357418060303
vn 0.93161392211914063 0 0.36344948410987854
vn 0.93161392211914063 0 0.36344948410987854
vn 1 0 0
vn 1 0 0
vn 0 0 1
vn 1 0 0
vn 1 0 0
vn 1 0 0
vn 1 0 0
vn 1 0 0
vn 1 0 0
vn 1 0 0
vn 1 0 0
vn 1 0 0
vn 1 0 0
vn 1 0 0
vn 1 0 0
vn 0.92502325773239136 0 -0.37991040945053101
vn 0.92502325773239136 0 -0.37991040945053101
vn 0.69970357418060303 0 -0.71443325281143188
vn 0.69970357418060303 0 -0.71443325281143188
vn 0.36344948410987854 0 -0.93161392211914063
vn 0.36344948410987854 0 -0.93161392211914063
vn 0 0 -1
vn 0 0 -1
vn -0.37991040945053101 0 -0.92502325773239136
vn -0.37991040945053101 0 -0.92502325773239136
vn -0.71443325281143188 0 -0.69970357418060303
vn -0.71443325281143188 0 -0.69970357418060303
vn -0.93161392211914063 0 -0.36344948410987854
vn -0.93161392211914063 0 -0.36344948410987854
vn -1 0 0
vn -1 0 0
vn -1 0 0
vn -1 0 0
vn -1 0 0
vn -1 0 0
vn -1 0 0
vn -1 0 0
vn -1 0 0
vn -1 0 0
vn -1 0 0
vn -1 0 0
vn -1 0 0
vn -1 0 0
vn -0.92502325773239136 0 0.37991040945053101
vn -0.92502325773239136 0 0.37991040945053101
vn -0.69970357418060303 0 0.71443325281143188
vn -0.69970357418060303 0 0.71443325281143188
vn -0.36344948410987854 0 0.93161392211914063
vn -0.36344948410987854 0 0.93161392211914063
vn 0 0 1
vn 0 0 1
vn 0 0 1
vn 0 1 0
vn 0 1 0
vn 0 1 0
vn 0 1 0
vn 0 1 0
vn 0 1 0
vn 0 1 0
vn 0 1 0
vn 0 1 0
vn 0 1 0
vn 0 1 0
vn 0 1 0
vn 0 1 0
vn 0 1 0
vn 0 1 0
vn 0 1 0
vn 0 1 0
vn 0 1 0
vn 0 1 0
vn 0 1 0
vn 0 1 0
vn 0 1 0
vn 0 1 0
vn 0 1 0
vn 0 1 0
vn 0 1 0
vn 0 1 0
vn 0 1 0
vn 0 1 0
vn 0 1 0
vn 0 1 0
vn 0 1 0
vn 0 1 0
vn 0 1 0
vn 0 1 0
vn 0 1 0
vn 0 1 0
vn 0 1 0
vn 0 1 0
vn 0 1 0
vn 0 1 0
vn 0 1 0
vn 0 1 0
vn 0 1 0
vn 0 1 0
vn 0 1 0
vn 0 1 0
vn 0 1 0
vn 0 1 0
vn 0 -1 0
vn 0 -1 0
vn 0 -1 0
vn 0 -1 0
vn 0 -1 0
vn 0 -1 0
vn 0 -1 0
vn 0 -1 0
vn 0 -1 0
vn 0 -1 0
vn 0 -1 0
vn 0 -1 0
vn 0 -1 0
vn 0 -1 0
vn 0 -1 0
vn 0 -1 0
vn 0 -1 0
vn 0 -1 0
vn 0 -1 0
vn 0 -1 0
vn 0 -1 0
vn 0 -1 0
vn 0 -1 0
vn 0 -1 0
vn 0 -1 0
vn 0 -1 0
vn 0 -1 0
vn 0 -1 0
vn 0 -1 0
vn 0 -1 0
vn 0 -1 0
vn 0 -1 0
vn 0 -1 0
vn 0 -1 0
vn 0 -1 0
vn 0 -1 0
vn 0 -1 0
vn 0 -1 0
vn 0 -1 0
vn 0 -1 0
vn 0 -1 0
vn 0 -1 0
vn 0 -1 0
vn 0 -1 0
vn 0 -1 0
vn 0 -1 0
vn 0 -1 0
vn 0 -1 0
vn 0 -1 0
f 11/11/11 1/1/1 3/3/3
f 2/2/2 11/11/11 4/4/4
f 3/3/3 4/4/4 11/11/11
f 4/4/4 3/3/3 5/5/5 6/6/6
f 7/7/7 8/8/8 6/6/6 5/5/5
f 9/9/9 10/10/10 8/8/8 7/7/7
f 14/16/16 19/21/21 10/13/13 9/12/12
f 19/21/21 14/16/16 15/17/17 18/20/20
f 12/14/14 13/15/15 17/19/19 16/18/18
f 16/18/18 17/19/19 18/20/20 15/17/17
f 20/24/24 21/25/25 13/23/23 12/22/22
f 24/28/28 25/29/29 23/27/27 22/26/26
f 22/26/26 23/27/27 21/25/25 20/24/24
f 26/30/30 27/31/31 25/29/29 24/28/28
f 30/34/34 31/35/35 29/33/33 28/32/32
f 34/38/38 35/39/39 33/37/37 32/36/36
f 32/36/36 33/37/37 31/35/35 30/34/34
f 28/32/32 29/33/33 27/31/31 26/30/30
f 38/44/44 43/49/49 35/41/41 34/40/40
f 43/49/49 38/44/44 39/45/45 42/48/48
f 36/42/42 37/43/43 41/47/47 40/46/46
f 40/46/46 41/47/47 42/48/48 39/45/45
f 44/52/52 45/53/53 37/51/51 36/50/50
f 45/53/53 44/52/52 46/54/54 47/55/55
f 11/60/60 48/56/56 1/58/58
f 49/57/57 48/56/56 11/60/60
f 48/56/56 49/57/57 47/55/55 46/54/54
f 11/60/60 2/59/59 49/57/57
f 64/92/92 62/90/90 59/87/87 63/91/91
f 61/89/89 64/92/92 63/91/91 60/88/88
f 63/91/91 59/87/87 50/66/66
f 51/67/67 60/88/88 63/91/91
f 50/66/66 51/67/67 63/91/91
f 68/96/96 66/94/94 65/93/93 67/95/95
f 62/90/90 68/96/96 67/95/95 59/87/87
f 66/94/94 70/98/98 69/97/97 65/93/93
f 67/95/95 65/93/93 54/70/70
f 50/66/66 59/87/87 67/95/95
f 54/70/70 50/66/66 67/95/95
f 72/107/107 52/68/68 50/66/66
f 54/70/70 55/71/71 72/107/107
f 50/66/66 54/70/70 72/107/107
f 52/68/68 72/107/107 74/109/109 71/106/106
f 72/107/107 55/71/71 73/108/108 74/109/109
f 51/67/67 50/66/66 52/68/68 53/69/69
f 56/72/72 53/69/69 57/73/73 58/74/74
f 55/71/71 37/102/102 45/103/103
f 37/102/102 55/71/71 41/101/101
f 41/101/101 54/70/70 42/100/100
f 45/103/103 47/104/104 73/108/108
f 49/105/105 74/109/109 73/108/108
f 47/104/104 49/105/105 73/108/108
f 2/61/61 74/109/109 49/105/105
f 41/101/101 55/71/71 54/70/70
f 45/103/103 73/108/108 55/71/71
f 43/99/99 42/100/100 54/70/70
f 35/86/86 43/99/99 69/97/97
f 69/97/97 43/99/99 54/70/70
f 33/85/85 35/86/86 70/98/98
f 69/97/97 70/98/98 35/86/86
f 31/84/84 33/85/85 70/98/98
f 29/83/83 66/94/94 68/96/96
f 70/98/98 66/94/94 31/84/84
f 31/84/84 66/94/94 29/83/83
f 27/82/82 29/83/83 68/96/96
f 27/82/82 68/96/96 62/90/90
f 69/97/97 54/70/70 65/93/93
f 2/61/61 71/106/106 74/109/109
f 57/73/73 71/106/106 4/62/62
f 2/61/61 4/62/62 71/106/106
f 57/73/73 53/69/69 52/68/68 71/106/106
f 57/73/73 4/62/62 6/63/63
f 58/74/74 6/63/63 8/64/64
f 10/65/65 58/74/74 8/64/64
f 19/75/75 56/72/72 10/65/65
f 58/74/74 10/65/65 56/72/72
f 51/67/67 53/69/69 56/72/72
f 6/63/63 58/74/74 57/73/73
f 56/72/72 19/75/75 51/67/67
f 60/88/88 51/67/67 18/76/76 17/77/77
f 27/82/82 64/92/92 25/81/81
f 64/92/92 61/89/89 25/81/81
f 62/90/90 64/92/92 27/82/82
f 17/77/77 13/78/78 60/88/88
f 13/78/78 21/79/79 60/88/88
f 23/80/80 61/89/89 21/79/79
f 21/79/79 61/89/89 60/88/88
f 25/81/81 61/89/89 23/80/80
f 18/76/76 51/67/67 19/75/75
f 89/141/141 88/140/140 84/136/136 87/139/139
f 86/138/138 85/137/137 88/140/140 89/141/141
f 88/140/140 75/115/115 84/136/136
f 76/116/116 88/140/140 85/137/137
f 75/115/115 88/140/140 76/116/116
f 93/145/145 92/144/144 90/142/142 91/143/143
f 87/139/139 84/136/136 92/144/144 93/145/145
f 91/143/143 90/142/142 94/146/146 95/147/147
f 92/144/144 79/119/119 90/142/142
f 75/115/115 92/144/144 84/136/136
f 79/119/119 92/144/144 75/115/115
f 97/156/156 75/115/115 77/117/117
f 79/119/119 97/156/156 80/120/120
f 75/115/115 97/156/156 79/119/119
f 77/117/117 96/155/155 99/158/158 97/156/156
f 97/156/156 99/158/158 98/157/157 80/120/120
f 76/116/116 78/118/118 77/117/117 75/115/115
f 81/121/121 83/123/123 82/122/122 78/118/118
f 80/120/120 44/152/152 36/151/151
f 36/151/151 40/150/150 80/120/120
f 40/150/150 39/149/149 79/119/119
f 44/152/152 98/157/157 46/153/153
f 48/154/154 98/157/157 99/158/158
f 46/153/153 98/157/157 48/154/154
f 1/110/110 48/154/154 99/158/158
f 40/150/150 79/119/119 80/120/120
f 44/152/152 80/120/120 98/157/157
f 38/148/148 79/119/119 39/149/149
f 34/135/135 94/146/146 38/148/148
f 94/146/146 79/119/119 38/148/148
f 32/134/134 95/147/147 34/135/135
f 94/146/146 34/135/135 95/147/147
f 30/133/133 95/147/147 32/134/134
f 28/132/132 93/145/145 91/143/143
f 95/147/147 30/133/133 91/143/143
f 30/133/133 28/132/132 91/143/143
f 26/131/131 93/145/145 28/132/132
f 26/131/131 87/139/139 93/145/145
f 94/146/146 90/142/142 79/119/119
f 1/110/110 99/158/158 96/155/155
f 82/122/122 3/111/111 96/155/155
f 1/110/110 96/155/155 3/111/111
f 82/122/122 96/155/155 77/117/117 78/118/118
f 82/122/122 5/112/112 3/111/111
f 83/123/123 7/113/113 5/112/112
f 9/114/114 7/113/113 83/123/123
f 14/124/124 9/114/114 81/121/121
f 83/123/123 81/121/121 9/114/114
f 76/116/116 81/121/121 78/118/118
f 5/112/112 82/122/122 83/123/123
f 81/121/121 76/116/116 14/124/124
f 85/137/137 16/126/126 15/125/125 76/116/116
f 26/131/131 24/130/130 89/141/141
f 89/141/141 24/130/130 86/138/138
f 87/139/139 26/131/131 89/141/141
f 16/126/126 85/137/137 12/127/127
f 12/127/127 85/137/137 20/128/128
f 22/129/129 20/128/128 86/138/138
f 20/128/128 85/137/137 86/138/138
f 24/130/130 22/129/129 86/138/138
f 15/125/125 14/124/124 76/116/116
