# Rhino

mtllib legbox.mtl
usemtl diffuse_0
v -0.0099999997764825821 0.004999999888241291 -0.11999999731779099
v -0.0099999997764825821 -0.004999999888241291 -0.11999999731779099
v 0.0099999997764825821 0.004999999888241291 -0.11999999731779099
v 0.0099999997764825821 -0.004999999888241291 -0.11999999731779099
v 0 0.004999999888241291 -0.11999999731779099
v 0 -0.004999999888241291 -0.11999999731779099
v 0.0099999997764825821 0.004999999888241291 0.019999999552965164
v 0.0099999997764825821 -0.004999999888241291 0.019999999552965164
v 0.0099999997764825821 0.004999999888241291 -0.085000000894069672
v 0.0099999997764825821 0.004999999888241291 -0.05000000074505806
v 0.0099999997764825821 0.004999999888241291 -0.014999999664723873
v 0.0099999997764825821 -0.004999999888241291 -0.014999999664723873
v 0.0099999997764825821 -0.004999999888241291 -0.05000000074505806
v 0.0099999997764825821 -0.004999999888241291 -0.085000000894069672
v -0.0099999997764825821 0.004999999888241291 0.019999999552965164
v -0.0099999997764825821 -0.004999999888241291 0.019999999552965164
v 0 0.004999999888241291 0.019999999552965164
v 0 -0.004999999888241291 0.019999999552965164
v -0.0099999997764825821 0.004999999888241291 -0.014999999664723873
v -0.0099999997764825821 0.004999999888241291 -0.05000000074505806
v -0.0099999997764825821 0.004999999888241291 -0.085000000894069672
v -0.0099999997764825821 -0.004999999888241291 -0.085000000894069672
v -0.0099999997764825821 -0.004999999888241291 -0.05000000074505806
v -0.0099999997764825821 -0.004999999888241291 -0.014999999664723873
vt 0.125 0.1458333283662796
vt 0.125 0.2083333283662796
vt 0.25 0.1458333283662796
vt 0.25 0.2083333283662796
vt 0.1875 0.1458333283662796
vt 0.1875 0.2083333283662796
vt 0.125 0.72916668653488159
vt 0.125 0.79166668653488159
vt 0.99853515625 0.72916668653488159
vt 0.99853515625 0.79166668653488159
vt 0.3433837890625 0.72916668653488159
vt 0.561767578125 0.72916668653488159
vt 0.7801513671875 0.72916668653488159
vt 0.7801513671875 0.79166668653488159
vt 0.561767578125 0.79166668653488159
vt 0.3433837890625 0.79166668653488159
vt 0.125 0
vt 0.125 0.0625
vt 0.25 0
vt 0.25 0.0625
vt 0.1875 0
vt 0.1875 0.0625
vt 0.125 0.58333331346511841
vt 0.125 0.64583331346511841
vt 0.99853515625 0.58333331346511841
vt 0.99853515625 0.64583331346511841
vt 0.3433837890625 0.58333331346511841
vt 0.561767578125 0.58333331346511841
vt 0.7801513671875 0.58333331346511841
vt 0.7801513671875 0.64583331346511841
vt 0.561767578125 0.64583331346511841
vt 0.3433837890625 0.64583331346511841
vt 0.99853515625 0.2916666567325592
vt 0.561767578125 0.2916666567325592
vt 0.125 0.2916666567325592
vt 0.99853515625 0.4166666567325592
vt 0.561767578125 0.4166666567325592
vt 0.125 0.4166666567325592
vt 0.99853515625 0.3541666567325592
vt 0.7801513671875 0.4166666567325592
vt 0.7801513671875 0.2916666567325592
vt 0.3433837890625 0.4166666567325592
vt 0.125 0.3541666567325592
vt 0.3433837890625 0.2916666567325592
vt 0 0
vt 0 0.436767578125
vt 0 0.87353515625
vt 0.12353515625 0
vt 0.12353515625 0.436767578125
vt 0.12353515625 0.87353515625
vt 0.061767578125 0
vt 0.12353515625 0.2183837890625
vt 0 0.2183837890625
vt 0.12353515625 0.6551513671875
vt 0.061767578125 0.87353515625
vt 0 0.6551513671875
vn 0 0 -1
vn 0 0 -1
vn 0 0 -1
vn 0 0 -1
vn 0 0 -1
vn 0 0 -1
vn 1 0 0
vn 1 0 0
vn 1 0 0
vn 1 0 0
vn 1 0 0
vn 1 0 0
vn 1 0 0
vn 1 0 0
vn 1 0 0
vn 1 0 0
vn 0 0 1
vn 0 0 1
vn 0 0 1
vn 0 0 1
vn 0 0 1
vn 0 0 1
vn -1 0 0
vn -1 0 0
vn -1 0 0
vn -1 0 0
vn -1 0 0
vn -1 0 0
vn -1 0 0
vn -1 0 0
vn -1 0 0
vn -1 0 0
vn 0 1 0
vn 0 1 0
vn 0 1 0
vn 0 1 0
vn 0 1 0
vn 0 1 0
vn 0 1 0
vn 0 1 0
vn 0 1 0
vn 0 1 0
vn 0 1 0
vn 0 1 0
vn 0 -1 0
vn 0 -1 0
vn 0 -1 0
vn 0 -1 0
vn 0 -1 0
vn 0 -1 0
vn 0 -1 0
vn 0 -1 0
vn 0 -1 0
vn 0 -1 0
vn 0 -1 0
vn 0 -1 0
f 2/2/2 1/1/1 5/5/5 6/6/6
f 3/3/3 4/4/4 6/6/6 5/5/5
f 9/11/11 14/16/16 4/8/8 3/7/7
f 14/16/16 9/11/11 10/12/12 13/15/15
f 7/9/9 8/10/10 12/14/14 11/13/13
f 11/13/13 12/14/14 13/15/15 10/12/12
f 8/18/18 7/17/17 17/21/21 18/22/22
f 15/19/19 16/20/20 18/22/22 17/21/21
f 19/27/27 24/32/32 16/24/24 15/23/23
f 24/32/32 19/27/27 20/28/28 23/31/31
f 1/25/25 2/26/26 22/30/30 21/29/29
f 21/29/29 22/30/30 23/31/31 20/28/28
f 21/41/41 5/39/39 1/33/33
f 20/34/34 10/37/37 9/40/40 21/41/41
f 19/44/44 11/42/42 10/37/37 20/34/34
f 19/44/44 15/35/35 17/43/43
f 21/41/41 9/40/40 5/39/39
f 7/38/38 11/42/42 17/43/43
f 11/42/42 19/44/44 17/43/43
f 3/36/36 5/39/39 9/40/40
f 22/53/53 2/45/45 6/51/51
f 23/46/46 22/53/53 14/52/52 13/49/49
f 24/56/56 23/46/46 13/49/49 12/54/54
f 24/56/56 18/55/55 16/47/47
f 22/53/53 6/51/51 14/52/52
f 8/50/50 18/55/55 12/54/54
f 12/54/54 18/55/55 24/56/56
f 4/48/48 14/52/52 6/51/51
