# Rhino

mtllib motor_small.mtl
usemtl diffuse_0
v -0.041999999433755875 -0.035999998450279236 -0.029999999329447746
v -0.041999999433755875 -0.035999998450279236 0.029999999329447746
v 0.041999999433755875 -0.035999998450279236 -0.029999999329447746
v 0.041999999433755875 -0.035999998450279236 0.029999999329447746
v 0 -0.035999998450279236 -0.029999999329447746
v 0.041999999433755875 -0.035999998450279236 0
v 0 -0.035999998450279236 0.029999999329447746
v -0.041999999433755875 -0.035999998450279236 0
v 0.041999999433755875 0.035999998450279236 -0.029999999329447746
v 0.041999999433755875 0.035999998450279236 0.029999999329447746
v 0.041999999433755875 0 -0.029999999329447746
v 0.041999999433755875 0.035999998450279236 0
v 0.041999999433755875 0 0.029999999329447746
v -0.041999999433755875 0.035999998450279236 -0.029999999329447746
v -0.041999999433755875 0.035999998450279236 0.029999999329447746
v 0 0.035999998450279236 -0.029999999329447746
v -0.041999999433755875 0.035999998450279236 0
v 0 0.035999998450279236 0.029999999329447746
v -0.041999999433755875 0 -0.029999999329447746
v -0.041999999433755875 0 0.029999999329447746
vt 0.31578946113586426 0.57894736528396606
vt 0.31578946113586426 0.84064042568206787
vt 0.68274569511413574 0.57894736528396606
vt 0.68274569511413574 0.84064042568206787
vt 0.499267578125 0.57894736528396606
vt 0.68274569511413574 0.70979386568069458
vt 0.499267578125 0.84064042568206787
vt 0.31578946113586426 0.70979386568069458
vt 0.68421053886413574 0.42105263471603394
vt 0.68421053886413574 0.68421053886413574
vt 0.99853515625 0.42105263471603394
vt 0.99853515625 0.68421053886413574
vt 0.68421053886413574 0.55263155698776245
vt 0.84137284755706787 0.42105263471603394
vt 0.99853515625 0.55263155698776245
vt 0.84137284755706787 0.68421053886413574
vt 0.31578946113586426 0.31578946113586426
vt 0.31578946113586426 0.57748252153396606
vt 0.68274569511413574 0.31578946113586426
vt 0.68274569511413574 0.57748252153396606
vt 0.31578946113586426 0.44663599133491516
vt 0.499267578125 0.31578946113586426
vt 0.68274569511413574 0.44663599133491516
vt 0.499267578125 0.57748252153396606
vt 0.68421053886413574 0
vt 0.68421053886413574 0.26315790414810181
vt 0.99853515625 0
vt 0.99853515625 0.26315790414810181
vt 0.99853515625 0.1315789520740509
vt 0.68421053886413574 0.1315789520740509
vt 0.84137284755706787 0
vt 0.84137284755706787 0.26315790414810181
vt 0.31432461738586426 0.31578946113586426
vt 0 0.31578946113586426
vt 0.31432461738586426 0.68421053886413574
vt 0 0.68421053886413574
vt 0.31432461738586426 0.5
vt 0.15716230869293213 0.68421053886413574
vt 0 0.5
vt 0.15716230869293213 0.31578946113586426
vt 0 0
vt 0 0.31432461738586426
vt 0.3684210479259491 0
vt 0.3684210479259491 0.31432461738586426
vt 0.18421052396297455 0
vt 0.3684210479259491 0.15716230869293213
vt 0.18421052396297455 0.31432461738586426
vt 0 0.15716230869293213
vn 0 -1 0
vn 0 -1 0
vn 0 -1 0
vn 0 -1 0
vn 0 -1 0
vn 0 -1 0
vn 0 -1 0
vn 0 -1 0
vn 1 0 0
vn 1 0 0
vn 1 0 0
vn 1 0 0
vn 1 0 0
vn 1 0 0
vn 1 0 0
vn 1 0 0
vn 0 1 0
vn 0 1 0
vn 0 1 0
vn 0 1 0
vn 0 1 0
vn 0 1 0
vn 0 1 0
vn 0 1 0
vn -1 0 0
vn -1 0 0
vn -1 0 0
vn -1 0 0
vn -1 0 0
vn -1 0 0
vn -1 0 0
vn -1 0 0
vn 0 0 -1
vn 0 0 -1
vn 0 0 -1
vn 0 0 -1
vn 0 0 -1
vn 0 0 -1
vn 0 0 -1
vn 0 0 -1
vn 0 0 1
vn 0 0 1
vn 0 0 1
vn 0 0 1
vn 0 0 1
vn 0 0 1
vn 0 0 1
vn 0 0 1
f 8/8/8 1/1/1 5/5/5
f 8/8/8 7/7/7 2/2/2
f 6/6/6 8/8/8 5/5/5
f 8/8/8 6/6/6 7/7/7
f 6/6/6 4/4/4 7/7/7
f 3/3/3 6/6/6 5/5/5
f 6/13/13 3/9/9 11/14/14
f 6/13/13 13/16/16 4/10/10
f 12/15/15 6/13/13 11/14/14
f 6/13/13 12/15/15 13/16/16
f 12/15/15 10/12/12 13/16/16
f 9/11/11 12/15/15 11/14/14
f 12/21/21 9/17/17 16/22/22
f 12/21/21 18/24/24 10/18/18
f 17/23/23 12/21/21 16/22/22
f 12/21/21 17/23/23 18/24/24
f 17/23/23 15/20/20 18/24/24
f 14/19/19 17/23/23 16/22/22
f 17/30/30 14/25/25 19/31/31
f 17/30/30 20/32/32 15/26/26
f 8/29/29 17/30/30 19/31/31
f 17/30/30 8/29/29 20/32/32
f 8/29/29 2/28/28 20/32/32
f 1/27/27 8/29/29 19/31/31
f 19/40/40 5/37/37 1/33/33
f 19/40/40 14/34/34 16/39/39
f 16/39/39 5/37/37 19/40/40
f 16/39/39 11/38/38 3/35/35 5/37/37
f 11/38/38 16/39/39 9/36/36
f 20/48/48 2/41/41 7/45/45
f 20/48/48 18/47/47 15/42/42
f 18/47/47 20/48/48 7/45/45
f 18/47/47 7/45/45 4/43/43 13/46/46
f 13/46/46 10/44/44 18/47/47
